<svg width="26" height="26" viewBox="0 0 26 26" fill="none" xmlns="http://www.w3.org/2000/svg">
<path d="M0.716058 0.0400009C0.842126 0.00277814 0.974295 -0.00922471 1.10501 0.00467902C1.23572 0.0185828 1.3624 0.0581203 1.47782 0.12103C1.59324 0.183939 1.69512 0.268987 1.77764 0.371306C1.86016 0.473626 1.92169 0.591211 1.95872 0.717334L2.69206 3.2H22.2321C24.6854 3.2 26.5587 5.48933 25.8521 7.88L23.6454 15.3467C23.1761 16.9387 21.6841 18 20.0254 18H7.81739C6.15873 18 4.66806 16.9387 4.19739 15.3467L0.0413914 1.284C-0.0338882 1.02975 -0.00510352 0.756004 0.121415 0.52297C0.247934 0.289935 0.461827 0.115357 0.716058 0.0400009ZM5.33339 23C5.33339 22.2044 5.64946 21.4413 6.21207 20.8787C6.77468 20.3161 7.53774 20 8.33339 20C9.12904 20 9.8921 20.3161 10.4547 20.8787C11.0173 21.4413 11.3334 22.2044 11.3334 23C11.3334 23.7957 11.0173 24.5587 10.4547 25.1213C9.8921 25.6839 9.12904 26 8.33339 26C7.53774 26 6.77468 25.6839 6.21207 25.1213C5.64946 24.5587 5.33339 23.7957 5.33339 23ZM16.0001 23C16.0001 22.606 16.0777 22.2159 16.2284 21.8519C16.3792 21.488 16.6002 21.1573 16.8787 20.8787C17.1573 20.6001 17.488 20.3791 17.852 20.2284C18.216 20.0776 18.6061 20 19.0001 20C19.394 20 19.7841 20.0776 20.1481 20.2284C20.5121 20.3791 20.8428 20.6001 21.1214 20.8787C21.4 21.1573 21.6209 21.488 21.7717 21.8519C21.9225 22.2159 22.0001 22.606 22.0001 23C22.0001 23.7957 21.684 24.5587 21.1214 25.1213C20.5588 25.6839 19.7957 26 19.0001 26C18.2044 26 17.4413 25.6839 16.8787 25.1213C16.3161 24.5587 16.0001 23.7957 16.0001 23Z" fill="white"/>
</svg>
